<?xml version="1.0" encoding="UTF-8"?>
<svg width="160px" height="223px" viewBox="0 0 160 223" version="1.1" xmlns="http://www.w3.org/2000/svg" xmlns:xlink="http://www.w3.org/1999/xlink">
    <!-- Generator: Sketch 58 (84663) - https://sketch.com -->
    <title>Page 1</title>
    <desc>Created with Sketch.</desc>
    <g id="Page-1" stroke="none" stroke-width="1" fill="none" fill-rule="evenodd">
        <g id="iPhone-5" transform="translate(-80.000000, -173.000000)">
            <g id="Page-1" transform="translate(81.000000, 174.000000)">
                <path d="M4.45697731,52.9548029 L1.89837469,52.9548029 C1.55232368,52.9548029 0.803932414,49.2394406 0.7418863,48.9511797 C0.0568204479,45.7796696 -0.185607151,42.4922145 0.148930142,39.2604899 C1.20115547,29.1098638 8.65948212,21.1942203 18.1614926,17.9452 C22.4273228,16.4866 27.0935744,16.0138522 31.420811,14.6097014 C36.6755412,12.9044783 41.8854958,10.7130551 46.4302137,7.53065507 C49.2996865,5.52115652 51.944642,3.05876812 53.7100778,0 L56.6953274,2.24202899 C56.6454347,2.20871884 55.5880921,4.52121159 55.5381994,4.64612464 C54.2326724,7.92461159 52.7320519,11.4273014 52.0789686,15.0075014 C51.3740736,18.8682754 52.0162829,22.522142 52.8203237,26.3079681 C53.9448296,31.5985159 55.8516282,36.7077797 58.2765438,41.5351884 C63.2095297,51.3565565 70.6652977,59.3919884 76.1483831,68.8469449 C81.7229386,78.4582029 84.1951884,89.1866319 85.2096743,100.16873 C85.3958127,102.187197 85.5263014,104.210148 85.6056181,106.23502 C85.6363213,107.018449 86.2363136,112.1796 85.6926106,112.528716 C89.5119646,110.076577 92.9871867,106.939658 96.2014312,103.758539 C103.768498,96.2701623 110.065859,87.3103739 113.919115,77.3467971 C115.857256,72.3349014 117.158306,67.0674145 117.620133,61.7083246 C118.122899,55.8713623 117.219712,50.0888493 117.162783,44.2525275 C117.060439,33.7130696 118.269379,22.574029 123.963549,13.4496116 C131.316973,1.72315942 144.807845,-0.92884058 157.729428,1.27603478 C157.739662,1.27795652 157.749897,1.27987826 157.760131,1.28115942 C157.760131,1.28115942 157.99936,4.48277681 158,4.48405797 C158,4.48405797 153.442489,4.1106 149.580278,5.9195971 C142.793585,9.0987942 138.874445,15.8626754 137.82222,23.1108348 C136.425863,32.7329826 139.720703,42.1072261 139.558872,51.7005478 C139.164207,75.0861913 127.00061,96.6122319 111.121922,113.095629 C110.102959,114.153226 109.066725,115.193528 108.0145,116.216533 C104.456763,119.676304 100.714167,122.943261 96.8334061,126.034058 C97.1634658,125.772701 99.8065023,131.036345 100.002235,131.436707 C101.827159,135.168725 102.746337,138.824513 102.761688,142.979954 C102.775121,146.4788 102.788554,149.977006 102.801347,153.475852 C102.837807,163.041629 102.873627,172.607406 102.910087,182.173183 C102.927997,186.859023 102.945268,191.544864 102.963178,196.231345 L111.065633,203.704348 L119.487274,198.25942 L123.218996,201.569296 L101.470873,221 L76.9505051,204.131614 L83.0271863,196.871925 C83.0175915,191.696041 83.0079968,186.520797 82.998402,181.344913 C82.9811315,171.961701 82.9632212,162.57913 82.9459507,153.195919 C82.9408335,150.588759 82.9357163,147.9816 82.9312387,145.3738 C82.9248422,141.944136 83.437842,138.461945 80.9099426,135.74909 C79.9184841,134.685087 78.6251105,133.997745 77.2031671,133.715249 C76.5264167,133.580728 70.6921631,134.060522 70.8738238,134.415403 C70.8738238,134.414762 68.8486899,130.464948 68.8486899,130.464948 C68.8486899,130.464948 83.666837,105.589316 51.5781222,102.706707 C51.5781222,102.706707 52.8574235,92.0301652 64.9039643,91.2826087 C64.9039643,91.2826087 60.746235,73.5603304 36.7593354,87.4391304 C36.7593354,87.4391304 33.1344352,74.2009101 52.0041295,68.3287159 C52.0041295,68.3287159 34.9472051,47.2965623 42.196366,24.9826087 C42.0793099,25.3426145 41.2855035,25.8268928 41.0168502,26.0587826 C39.8603618,27.0516812 38.6360704,27.9670696 37.3804362,28.8292899 C32.872818,31.9264928 27.8950566,34.3318696 22.7369137,36.1254928 C18.1000861,37.7371913 12.4577277,37.5482203 9.00617277,41.4986754 C7.28231425,43.4723014 5.95503914,45.8687101 5.29491967,48.3977188 C5.20600823,48.7365855 4.21135146,52.9548029 4.45697731,52.9548029" id="Fill-1" fill="#000000"></path>
                <path d="M4.45697731,52.9548029 L1.89837469,52.9548029 C1.55232368,52.9548029 0.803932414,49.2394406 0.7418863,48.9511797 C0.0568204479,45.7796696 -0.185607151,42.4922145 0.148930142,39.2604899 C1.20115547,29.1098638 8.65948212,21.1942203 18.1614926,17.9452 C22.4273228,16.4866 27.0935744,16.0138522 31.420811,14.6097014 C36.6755412,12.9044783 41.8854958,10.7130551 46.4302137,7.53065507 C49.2996865,5.52115652 51.944642,3.05876812 53.7100778,0 L56.6953274,2.24202899 C56.6454347,2.20871884 55.5880921,4.52121159 55.5381994,4.64612464 C54.2326724,7.92461159 52.7320519,11.4273014 52.0789686,15.0075014 C51.3740736,18.8682754 52.0162829,22.522142 52.8203237,26.3079681 C53.9448296,31.5985159 55.8516282,36.7077797 58.2765438,41.5351884 C63.2095297,51.3565565 70.6652977,59.3919884 76.1483831,68.8469449 C81.7229386,78.4582029 84.1951884,89.1866319 85.2096743,100.16873 C85.3958127,102.187197 85.5263014,104.210148 85.6056181,106.23502 C85.6363213,107.018449 86.2363136,112.1796 85.6926106,112.528716 C89.5119646,110.076577 92.9871867,106.939658 96.2014312,103.758539 C103.768498,96.2701623 110.065859,87.3103739 113.919115,77.3467971 C115.857256,72.3349014 117.158306,67.0674145 117.620133,61.7083246 C118.122899,55.8713623 117.219712,50.0888493 117.162783,44.2525275 C117.060439,33.7130696 118.269379,22.574029 123.963549,13.4496116 C131.316973,1.72315942 144.807845,-0.92884058 157.729428,1.27603478 C157.739662,1.27795652 157.749897,1.27987826 157.760131,1.28115942 C157.760131,1.28115942 157.99936,4.48277681 158,4.48405797 C158,4.48405797 153.442489,4.1106 149.580278,5.9195971 C142.793585,9.0987942 138.874445,15.8626754 137.82222,23.1108348 C136.425863,32.7329826 139.720703,42.1072261 139.558872,51.7005478 C139.164207,75.0861913 127.00061,96.6122319 111.121922,113.095629 C110.102959,114.153226 109.066725,115.193528 108.0145,116.216533 C104.456763,119.676304 100.714167,122.943261 96.8334061,126.034058 C97.1634658,125.772701 99.8065023,131.036345 100.002235,131.436707 C101.827159,135.168725 102.746337,138.824513 102.761688,142.979954 C102.775121,146.4788 102.788554,149.977006 102.801347,153.475852 C102.837807,163.041629 102.873627,172.607406 102.910087,182.173183 C102.927997,186.859023 102.945268,191.544864 102.963178,196.231345 L111.065633,203.704348 L119.487274,198.25942 L123.218996,201.569296 L101.470873,221 L76.9505051,204.131614 L83.0271863,196.871925 C83.0175915,191.696041 83.0079968,186.520797 82.998402,181.344913 C82.9811315,171.961701 82.9632212,162.57913 82.9459507,153.195919 C82.9408335,150.588759 82.9357163,147.9816 82.9312387,145.3738 C82.9248422,141.944136 83.437842,138.461945 80.9099426,135.74909 C79.9184841,134.685087 78.6251105,133.997745 77.2031671,133.715249 C76.5264167,133.580728 70.6921631,134.060522 70.8738238,134.415403 C70.8738238,134.414762 68.8486899,130.464948 68.8486899,130.464948 C68.8486899,130.464948 83.666837,105.589316 51.5781222,102.706707 C51.5781222,102.706707 52.8574235,92.0301652 64.9039643,91.2826087 C64.9039643,91.2826087 60.746235,73.5603304 36.7593354,87.4391304 C36.7593354,87.4391304 33.1344352,74.2009101 52.0041295,68.3287159 C52.0041295,68.3287159 34.9472051,47.2965623 42.196366,24.9826087 C42.0793099,25.3426145 41.2855035,25.8268928 41.0168502,26.0587826 C39.8603618,27.0516812 38.6360704,27.9670696 37.3804362,28.8292899 C32.872818,31.9264928 27.8950566,34.3318696 22.7369137,36.1254928 C18.1000861,37.7371913 12.4577277,37.5482203 9.00617277,41.4986754 C7.28231425,43.4723014 5.95503914,45.8687101 5.29491967,48.3977188 C5.20600823,48.7365855 4.21135146,52.9548029 4.45697731,52.9548029 L4.45697731,52.9548029 Z" id="Stroke-3" stroke="#000000" stroke-linecap="round" stroke-linejoin="round"></path>
            </g>
        </g>
    </g>
</svg>